<?xml version="1.0" encoding="utf-8"?>
<!-- Generator: Adobe Illustrator 16.0.0, SVG Export Plug-In . SVG Version: 6.00 Build 0)  -->
<!DOCTYPE svg PUBLIC "-//W3C//DTD SVG 1.1//EN" "http://www.w3.org/Graphics/SVG/1.1/DTD/svg11.dtd">
<svg version="1.1" id="Layer_1" xmlns="http://www.w3.org/2000/svg" xmlns:xlink="http://www.w3.org/1999/xlink" x="0px" y="0px"
	 width="309.347px" height="309.347px" viewBox="151.447 332.768 309.347 309.347"
	 enable-background="new 151.447 332.768 309.347 309.347" xml:space="preserve">
<g id="XMLID_138_">
	<path id="XMLID_142_" fill="#FFFFFF" d="M452.664,386.079c-3.944-10.16-9.203-18.767-17.81-27.373
		c-8.606-8.606-17.213-13.865-27.373-17.81c-9.802-3.825-21.157-6.455-37.532-7.172c-16.496-0.717-21.755-0.956-63.83-0.956
		s-47.334,0.12-63.829,0.956c-16.496,0.717-27.731,3.347-37.533,7.172c-10.16,3.945-18.767,9.204-27.373,17.81
		c-8.605,8.606-13.865,17.213-17.81,27.373c-3.825,9.801-6.455,21.157-7.172,37.532c-0.718,16.496-0.956,21.755-0.956,63.83
		s0.119,47.334,0.956,63.83c0.717,16.495,3.347,27.73,7.172,37.532c3.944,10.16,9.204,18.767,17.81,27.373
		c8.606,8.606,17.213,13.865,27.373,17.81c9.802,3.825,21.157,6.455,37.533,7.172c16.495,0.718,21.754,0.957,63.829,0.957
		s47.334-0.12,63.83-0.957c16.495-0.717,27.73-3.347,37.532-7.172c10.16-3.944,18.767-9.203,27.373-17.81
		s13.865-17.213,17.81-27.373c3.825-9.802,6.455-21.157,7.172-37.532c0.718-16.496,0.957-21.755,0.957-63.83
		s-0.12-47.334-0.957-63.83C459.119,407.116,456.49,395.88,452.664,386.079z M431.986,549.956
		c-0.717,15.062-3.228,23.309-5.379,28.688c-2.749,7.172-6.216,12.432-11.595,17.811s-10.519,8.726-17.81,11.595
		c-5.499,2.151-13.627,4.661-28.688,5.379c-16.376,0.717-21.157,0.956-62.516,0.956c-41.357,0-46.258-0.12-62.514-0.956
		c-15.062-0.718-23.309-3.228-28.688-5.379c-7.172-2.75-12.432-6.216-17.811-11.595s-8.726-10.519-11.595-17.811
		c-2.151-5.498-4.661-13.626-5.379-28.688c-0.717-16.376-0.956-21.276-0.956-62.515s0.119-46.259,0.956-62.515
		c0.718-15.062,3.228-23.309,5.379-28.688c2.749-7.172,6.216-12.432,11.595-17.811s10.519-8.726,17.811-11.594
		c5.498-2.152,13.626-4.662,28.688-5.379c16.375-0.717,21.276-0.957,62.514-0.957c41.239,0,46.259,0.12,62.516,0.957
		c15.061,0.717,23.309,3.227,28.688,5.379c7.172,2.749,12.431,6.215,17.81,11.594s8.726,10.519,11.595,17.811
		c2.151,5.498,4.662,13.626,5.379,28.688c0.718,16.376,0.956,21.276,0.956,62.515S432.703,533.7,431.986,549.956z"/>
	<path id="XMLID_145_" fill="#FFFFFF" d="M306,407.953c-43.868,0-79.488,35.62-79.488,79.488S262.132,566.93,306,566.93
		c43.867,0,79.488-35.62,79.488-79.488S349.867,407.953,306,407.953z M306,539.079c-28.448,0-51.638-23.069-51.638-51.638
		c0-28.448,23.069-51.638,51.638-51.638c28.567,0,51.637,23.069,51.637,51.638C357.637,515.89,334.448,539.079,306,539.079z"/>
	<circle id="XMLID_143_" fill="#FFFFFF" cx="388.596" cy="404.845" r="18.528"/>
</g>
</svg>
